<svg width="80" height="80" viewBox="0 0 80 80" fill="none" xmlns="http://www.w3.org/2000/svg">
<rect width="80" height="80" rx="40" fill="#0B2347"/>
<path d="M42 29.512V25H27V56H42V51.488C38.9272 51.488 35.9803 50.3303 33.8076 48.2696C31.6348 46.209 30.4142 43.4142 30.4142 40.5C30.4142 37.5858 31.6348 34.7909 33.8076 32.7303C35.9803 30.6697 38.9272 29.512 42 29.512Z" fill="white"/>
<path d="M42 29V52C44.9174 52 47.7153 50.7883 49.7782 48.6317C51.8411 46.475 53 43.55 53 40.5C53 37.45 51.8411 34.5249 49.7782 32.3683C47.7153 30.2116 44.9174 29 42 29Z" fill="white"/>
</svg>
