<svg width="80" height="80" viewBox="0 0 80 80" fill="none" xmlns="http://www.w3.org/2000/svg">
<rect width="80" height="80" rx="40" fill="#FDBA2E"/>
<path d="M41.6899 29.512V25H26.6899V56H41.6899V51.488C38.6172 51.488 35.6702 50.3303 33.4975 48.2696C31.3248 46.209 30.1041 43.4142 30.1041 40.5C30.1041 37.5858 31.3248 34.7909 33.4975 32.7303C35.6702 30.6697 38.6172 29.512 41.6899 29.512Z" fill="white"/>
<path d="M41.6899 29V52C44.6073 52 47.4053 50.7883 49.4682 48.6317C51.5311 46.475 52.6899 43.55 52.6899 40.5C52.6899 37.45 51.5311 34.5249 49.4682 32.3683C47.4053 30.2116 44.6073 29 41.6899 29Z" fill="white"/>
</svg>
